<?xml version="1.0" encoding="UTF-8" standalone="no"?>
<!-- Created with Inkscape (http://www.inkscape.org/) -->

<svg
   xmlns:dc="http://purl.org/dc/elements/1.1/"
   xmlns:cc="http://creativecommons.org/ns#"
   xmlns:rdf="http://www.w3.org/1999/02/22-rdf-syntax-ns#"
   xmlns:svg="http://www.w3.org/2000/svg"
   xmlns="http://www.w3.org/2000/svg"
   xmlns:sodipodi="http://sodipodi.sourceforge.net/DTD/sodipodi-0.dtd"
   xmlns:inkscape="http://www.inkscape.org/namespaces/inkscape"
   version="1.1"
   id="svg2"
   xml:space="preserve"
   width="122.56453"
   height="105.00173"
   viewBox="0 0 122.56453 105.00173"
   sodipodi:docname="tsri.svg"
   inkscape:version="0.92.2 5c3e80d, 2017-08-06"><metadata
     id="metadata8"><rdf:RDF><cc:Work
         rdf:about=""><dc:format>image/svg+xml</dc:format><dc:type
           rdf:resource="http://purl.org/dc/dcmitype/StillImage" /><dc:title></dc:title></cc:Work></rdf:RDF></metadata><defs
     id="defs6"><linearGradient
       x1="0"
       y1="0"
       x2="1"
       y2="0"
       gradientUnits="userSpaceOnUse"
       gradientTransform="matrix(89.249985,0,0,89.249985,1.336695,37.085999)"
       spreadMethod="pad"
       id="linearGradient38"><stop
         style="stop-opacity:1;stop-color:#ffce34"
         offset="0"
         id="stop24" /><stop
         style="stop-opacity:1;stop-color:#ffce34"
         offset="0.222055"
         id="stop26" /><stop
         style="stop-opacity:1;stop-color:#bc8140"
         offset="0.36060659"
         id="stop28" /><stop
         style="stop-opacity:1;stop-color:#bc8140"
         offset="0.39355"
         id="stop30" /><stop
         style="stop-opacity:1;stop-color:#bc8140"
         offset="0.42861648"
         id="stop32" /><stop
         style="stop-opacity:1;stop-color:#ffce34"
         offset="0.55"
         id="stop34" /><stop
         style="stop-opacity:1;stop-color:#ffce34"
         offset="1"
         id="stop36" /></linearGradient><clipPath
       clipPathUnits="userSpaceOnUse"
       id="clipPath48"><path
         d="M 0,78.751 H 91.923 V 0 H 0 Z"
         id="path46"
         inkscape:connector-curvature="0" /></clipPath></defs><sodipodi:namedview
     pagecolor="#ffffff"
     bordercolor="#666666"
     borderopacity="1"
     objecttolerance="10"
     gridtolerance="10"
     guidetolerance="10"
     inkscape:pageopacity="0"
     inkscape:pageshadow="2"
     inkscape:window-width="640"
     inkscape:window-height="480"
     id="namedview4"
     showgrid="false"
     inkscape:zoom="2.247582"
     inkscape:cx="61.282265"
     inkscape:cy="52.500866"
     inkscape:window-x="0"
     inkscape:window-y="-22"
     inkscape:window-maximized="0"
     inkscape:current-layer="g10" /><g
     id="g10"
     inkscape:groupmode="layer"
     inkscape:label="Global_Infinity Gold_GLOW_Loop"
     transform="matrix(1.3333333,0,0,-1.3333333,0,105.00173)"><g
       id="g12"><g
         id="g14"><g
           id="g20"><g
             id="g22"><path
               d="m 42.253,45.474 c -1.922,-2.731 -3.901,-5.541 -5.882,-8.236 v 0 C 29.692,48.32 23.265,58.406 14.717,58.406 v 0 c -4.482,0 -8.251,-2.195 -10.617,-6.181 v 0 C 2.292,49.176 1.337,45.113 1.337,40.472 v 0 c 0,-6.036 1.664,-12.607 4.451,-17.579 v 0 c 3.566,-6.359 8.678,-9.86 14.394,-9.86 v 0 c 4.681,0 9.532,2.856 15.194,8.969 v 0 C 42.787,10.41 51.255,0 62.645,0 v 0 c 8.125,0 15.493,5.26 20.747,14.811 v 0 c 4.573,8.31 7.195,19.455 7.195,30.578 v 0 c 0,8.098 -1.493,15.048 -4.318,20.095 v 0 c -3.137,5.603 -7.794,8.688 -13.116,8.688 v 0 c -10.706,0 -20.486,-13.899 -30.9,-28.698 M 41.288,29.125 c 2.722,3.559 5.514,7.527 8.22,11.374 v 0 c 7.387,10.498 17.506,24.875 23.645,24.875 v 0 c 5.003,0 8.635,-8.405 8.635,-19.985 v 0 C 81.788,25.555 73.021,8.797 62.645,8.797 v 0 c -7.601,0 -14.751,9.681 -21.357,20.328 M 10.135,40.472 c 0,3.016 0.543,5.597 1.534,7.267 v 0 c 0.777,1.309 1.688,1.87 3.048,1.87 v 0 c 3.954,0 10.56,-10.991 15.386,-19.018 v 0 l 0.466,-0.774 C 26.058,24.516 22.564,21.83 20.182,21.83 v 0 c -5.566,0 -10.047,10.197 -10.047,18.642"
               style="fill:url(#linearGradient38);stroke:none"
               id="path40"
               inkscape:connector-curvature="0" /></g></g></g></g><g
       id="g42"><g
         id="g44"
         clip-path="url(#clipPath48)"><g
           id="g50"
           transform="translate(41.2896,29.0938)"><path
             d="m 0,0 c 2.721,3.56 5.511,7.525 8.217,11.372 7.385,10.495 17.5,24.869 23.64,24.869 5.001,0 8.716,-9.444 8.716,-21.021 l 8.713,1.04 c 0,8.097 -1.494,15.043 -4.319,20.09 -3.134,5.6 -7.791,8.685 -13.11,8.685 -10.706,0 -20.482,-13.895 -30.894,-28.69 -1.921,-2.731 -3.899,-5.539 -5.88,-8.232 l -5.799,-7.422 c -4.511,-5.298 -8.004,-7.983 -10.386,-7.983 -5.564,0 -10.044,10.195 -10.044,18.636 h -8.795 c 0,-6.034 1.663,-12.604 4.45,-17.573 3.566,-6.358 8.675,-9.859 14.389,-9.859 4.68,0 9.531,2.857 15.192,8.967 z"
             style="fill:#ffce35;fill-opacity:1;fill-rule:nonzero;stroke:none"
             id="path52"
             inkscape:connector-curvature="0" /></g></g></g></g></svg>